<svg width="32" height="20" fill="none" xmlns="http://www.w3.org/2000/svg"><path d="M31.95 1.416c.272.735-.564 2.45-2.507 5.147-.272.367-.622.858-1.05 1.47-.894 1.144-1.399 1.9-1.515 2.267-.195.49-.117.96.233 1.41.194.245.641.735 1.34 1.47h.059v.061c1.594 1.512 2.662 2.798 3.207 3.86l.116.245.117.46v.582l-.408.46-.991.214-4.256.123c-.273.04-.593 0-.963-.123-.369-.122-.65-.245-.845-.367l-.35-.246c-.35-.245-.738-.612-1.166-1.103A47.49 47.49 0 0 1 21.834 16a5.977 5.977 0 0 0-1.02-1.011c-.35-.266-.66-.358-.933-.276-.039 0-.087.02-.146.061-.058.041-.155.133-.291.276a1.982 1.982 0 0 0-.35.52c-.097.205-.184.501-.262.89a7.102 7.102 0 0 0-.117 1.378c0 .163-.02.316-.058.46a2.099 2.099 0 0 1-.117.336l-.058.062c-.233.245-.544.367-.933.367h-1.866c-.816.082-1.642 0-2.477-.245-.836-.245-1.565-.562-2.187-.95a21.227 21.227 0 0 1-1.69-1.164c-.506-.388-.895-.725-1.167-1.01l-.408-.43c-.116-.081-.272-.245-.466-.49a73.405 73.405 0 0 1-1.195-1.593 39.765 39.765 0 0 1-1.779-2.635c-.583-.939-1.263-2.175-2.04-3.706A61.125 61.125 0 0 1 .117 2.09 1.472 1.472 0 0 1 0 1.6c0-.123.02-.225.058-.306l.059-.062C.272.987.583.865 1.049.865h4.606c.117 0 .234.03.35.092l.292.153.058.061c.194.123.33.306.408.551.233.572.496 1.175.787 1.808.292.633.515 1.113.67 1.44l.234.49c.35.694.67 1.297.962 1.807.291.511.554.91.787 1.195.233.286.466.51.7.674.233.164.427.245.583.245.155 0 .31-.02.466-.061l.058-.092.204-.398.234-.797.145-1.409V4.418c-.038-.449-.097-.868-.175-1.256-.077-.388-.155-.663-.233-.827l-.058-.184c-.272-.408-.758-.674-1.458-.796-.116 0-.077-.143.117-.43.194-.203.408-.367.641-.49.583-.326 1.905-.469 3.965-.428.894 0 1.652.082 2.274.245.194.04.369.112.524.214a.934.934 0 0 1 .35.43c.078.183.136.367.175.55.039.184.058.45.058.797v.95c-.038.327-.058.735-.058 1.225v1.47c0 .123-.01.368-.029.736-.02.368-.03.654-.03.858 0 .204.02.439.06.705.038.265.106.49.203.673a.914.914 0 0 0 .38.399c.077.04.164.071.262.092.097.02.242-.041.437-.184.194-.143.408-.347.641-.613.233-.265.525-.664.875-1.195.35-.53.719-1.143 1.107-1.838A33.457 33.457 0 0 0 24.43 1.54c.039-.082.087-.174.146-.276a.526.526 0 0 1 .204-.215h.058l.058-.06.233-.062h.35L30.26.865c.428-.041.787-.02 1.079.06.291.083.456.185.495.307l.117.184Z" fill="#B1B5C3"/></svg>