<svg width="241" height="112" viewBox="0 0 241 112" fill="none" xmlns="http://www.w3.org/2000/svg">
<path fill-rule="evenodd" clip-rule="evenodd" d="M24.0982 22.0771H43.5976L24.4587 66.6602H4.57812L24.0982 22.0771Z" fill="black"/>
<path fill-rule="evenodd" clip-rule="evenodd" d="M4.57901 66.6605L11.4927 50.8468L62.0585 50.8468L52.9845 66.6607L4.57901 66.6605Z" fill="black"/>
<path fill-rule="evenodd" clip-rule="evenodd" d="M60.4012 22.0771H79.9006L50.8718 89.2247H31.373L60.4012 22.0771Z" fill="black"/>
<path fill-rule="evenodd" clip-rule="evenodd" d="M97.0782 39.1592L104.427 22.0783L159.747 22.0778L152.4 39.1592L97.0782 39.1592Z" fill="black"/>
<path fill-rule="evenodd" clip-rule="evenodd" d="M75.469 89.1576L82.8141 72.0764L138.137 72.0764L130.79 89.1574L75.469 89.1576Z" fill="black"/>
<path fill-rule="evenodd" clip-rule="evenodd" d="M140.19 22.0786H159.69L130.661 89.2261H111.162L140.19 22.0786Z" fill="black"/>
<path fill-rule="evenodd" clip-rule="evenodd" d="M104.497 22.0781H123.996L94.9675 89.2256H75.4688L104.497 22.0781Z" fill="black"/>
<path fill-rule="evenodd" clip-rule="evenodd" d="M184.264 22.0776H203.764L184.625 66.6607H164.744L184.264 22.0776Z" fill="#030000"/>
<path fill-rule="evenodd" clip-rule="evenodd" d="M164.745 66.6605L171.659 50.8468L222.225 50.8468L213.151 66.6607L164.745 66.6605Z" fill="#030000"/>
<path fill-rule="evenodd" clip-rule="evenodd" d="M220.567 22.0776H240.067L211.038 89.2252H191.539L220.567 22.0776Z" fill="#030000"/>
</svg>
