<svg width="224" height="69" viewBox="0 0 224 69" fill="none" xmlns="http://www.w3.org/2000/svg">
<path fill-rule="evenodd" clip-rule="evenodd" d="M141.908 28.6801H140.42V21.0442H136.731V28.6801H135.243V19.6204H141.908V28.6801Z" fill="black"/>
<path fill-rule="evenodd" clip-rule="evenodd" d="M154.533 22.5965C154.533 24.2666 153.238 25.5741 151.529 25.5741H149.679V28.6801H148.191V19.6204H151.529C153.238 19.6204 154.533 20.9151 154.533 22.5972V22.5965ZM153.045 22.5965C153.045 21.6778 152.411 21.0181 151.53 21.0181H149.68V24.1756H151.53C152.411 24.1756 153.045 23.5032 153.045 22.5965Z" fill="black"/>
<path fill-rule="evenodd" clip-rule="evenodd" d="M159.557 24.1512C159.557 21.5235 161.64 19.4526 164.254 19.4526C166.867 19.4526 168.953 21.5235 168.953 24.1512C168.953 26.7788 166.882 28.8497 164.254 28.8497C161.626 28.8497 159.557 26.7788 159.557 24.1512ZM167.464 24.1512C167.464 22.2877 166.066 20.9026 164.254 20.9026C162.442 20.9026 161.045 22.2877 161.045 24.1512C161.045 26.0146 162.443 27.3997 164.254 27.3997C166.064 27.3997 167.464 26.0146 167.464 24.1512Z" fill="black"/>
<path fill-rule="evenodd" clip-rule="evenodd" d="M179.606 27.7755V28.8106H178.144V27.7755C175.633 27.5681 173.925 26.2867 173.925 24.1516C173.925 22.0166 175.632 20.7345 178.144 20.5278V19.4927H179.606V20.5278C182.103 20.7352 183.813 22.0292 183.813 24.1516C183.813 26.274 182.104 27.5681 179.606 27.7755ZM178.144 26.4166V21.8867C176.422 22.0419 175.413 22.7666 175.413 24.1516C175.413 25.5367 176.422 26.2613 178.144 26.4173V26.4166ZM182.325 24.1509C182.325 22.7658 181.314 22.0412 179.607 21.886V26.4158C181.314 26.2464 182.325 25.5225 182.325 24.1501V24.1509Z" fill="black"/>
<path fill-rule="evenodd" clip-rule="evenodd" d="M224 28.7062H222.511V22.248L219.755 26.8032H219.573L216.817 22.2345V28.7062H215.329V19.6472H216.933L219.664 24.1763L222.407 19.6472H224V28.7062Z" fill="black"/>
<path fill-rule="evenodd" clip-rule="evenodd" d="M194.156 28.6813L190.584 24.3716V28.6813H189.096V19.6223H190.584V23.6858L194.027 19.6223H195.8L192.136 24.0358L195.929 28.6813H194.156Z" fill="black"/>
<path fill-rule="evenodd" clip-rule="evenodd" d="M200.506 24.1512C200.506 21.5235 202.588 19.4526 205.203 19.4526C207.817 19.4526 209.901 21.5235 209.901 24.1512C209.901 26.7788 207.831 28.8497 205.203 28.8497C202.574 28.8497 200.506 26.7788 200.506 24.1512ZM208.412 24.1512C208.412 22.2877 207.015 20.9026 205.203 20.9026C203.391 20.9026 201.994 22.2877 201.994 24.1512C201.994 26.0146 203.391 27.3997 205.203 27.3997C207.014 27.3997 208.412 26.0146 208.412 24.1512Z" fill="black"/>
<path fill-rule="evenodd" clip-rule="evenodd" d="M134.923 49.2836H133.461V41.7813H129.836V49.2836H128.374V40.3835H134.923V49.2836Z" fill="black"/>
<path fill-rule="evenodd" clip-rule="evenodd" d="M140.424 45.1377C140.257 42.3071 142.545 40.0496 145.365 40.2422C147.637 40.3967 149.525 42.3205 149.641 44.5937C149.784 47.387 147.55 49.6116 144.752 49.4549C142.472 49.3265 140.558 47.4161 140.424 45.1377ZM148.185 44.8467C148.185 43.0153 146.811 41.6556 145.031 41.6556C143.252 41.6556 141.878 43.0161 141.878 44.8467C141.878 46.6773 143.252 48.0392 145.031 48.0392C146.81 48.0392 148.185 46.678 148.185 44.8467Z" fill="black"/>
<path fill-rule="evenodd" clip-rule="evenodd" d="M154.394 47.9456C155.437 48.0859 156.06 47.6016 156.06 45.5426V40.3918H162.024V49.2926H160.562V41.7896H157.522V45.5157C157.522 48.759 156.047 49.4583 154.394 49.2926V47.9456Z" fill="black"/>
<path fill-rule="evenodd" clip-rule="evenodd" d="M173.979 43.2723L169.782 49.3126H168.638V40.4119H170.1V46.4507L174.297 40.4119H175.441V49.3126H173.979V43.2723Z" fill="black"/>
<path fill-rule="evenodd" clip-rule="evenodd" d="M187.376 41.793H184.87V49.2953H183.41V41.793H180.891V40.3945H187.376V41.793Z" fill="black"/>
<path fill-rule="evenodd" clip-rule="evenodd" d="M198.481 47.9058V49.3051H193.075V40.4043H198.416V41.8028H194.538V44.1162H198.098V45.5028H194.538V47.9058H198.481Z" fill="black"/>
<path fill-rule="evenodd" clip-rule="evenodd" d="M209.599 49.2953L207.641 46.0781L205.683 49.2953H204.017L206.814 44.7177L204.182 40.3945H205.835L207.641 43.3565L209.446 40.3945H211.113L208.479 44.7177L211.265 49.2953H209.599Z" fill="black"/>
<path fill-rule="evenodd" clip-rule="evenodd" d="M221.798 47.5201H218.009L217.386 49.3134H215.797L219.026 40.4119H220.781L223.998 49.3134H222.421L221.797 47.5201H221.798ZM221.315 46.1462L219.903 42.1283L218.492 46.1462H221.315Z" fill="black"/>
<path fill-rule="evenodd" clip-rule="evenodd" d="M98.3654 9.68188H120.924L98.3407 59.235H75.7825L98.3654 9.68188Z" fill="black"/>
<path fill-rule="evenodd" clip-rule="evenodd" d="M77.5157 0H100.075L77.4919 49.5531H54.9329L77.5157 0Z" fill="black"/>
<path fill-rule="evenodd" clip-rule="evenodd" d="M43.4315 19.3638H65.9898L43.4069 68.9161H20.8486L43.4315 19.3638Z" fill="black"/>
<path fill-rule="evenodd" clip-rule="evenodd" d="M22.5829 9.68188H45.1411L22.5583 59.235H0L22.5829 9.68188Z" fill="black"/>
</svg>
