<svg width="120" height="89" fill="none" xmlns="http://www.w3.org/2000/svg"><path d="m3.525 48.979-.06-.001c-.343-.016-.965-.171-1.287-1.037a5.534 5.534 0 0 1-.19-.672c-.096-.415-.2-.977-.308-1.67-.185-1.181-.34-2.45-.352-2.728-.017-.36-.045-.78-.078-1.265-.114-1.688-.27-4-.054-6.073.128-1.22.365-2.21.725-3.03.48-1.09 1.178-1.86 2.078-2.29a3.137 3.137 0 0 1 1.36-.322c.828 0 1.63.358 2.322 1.036 1.387 1.36 2.549 4.219 3.453 8.498.38 1.8.61 3.378.713 4.16.266 2.005.214 2.23.071 2.545a1.303 1.303 0 0 1-1.285.759 1.32 1.32 0 0 1-1.169-.981 1.28 1.28 0 0 1-.027-.57c-.04-.523-.186-1.773-.441-3.286a1.306 1.306 0 0 1-1.286-.434h-.036c-.167 0-.475.031-1.004.18-.771.217-1.633.58-2.262.845-.177.074-.34.143-.485.202.047.519.294 2.354.506 3.456.374.276.575.737.51 1.207a2.565 2.565 0 0 1-.128.547 1.36 1.36 0 0 1-1.286.923zm1.837-16.52a.567.567 0 0 0-.236.067c-.696.333-1.164 1.464-1.353 3.272-.144 1.377-.1 2.926-.02 4.332.754-.315 1.69-.686 2.585-.9.503-.12.94-.18 1.334-.18.132 0 .26.008.383.02.125.015.246.035.362.063-.408-1.77-.887-3.309-1.385-4.454-.473-1.088-.977-1.843-1.42-2.127-.13-.084-.205-.093-.25-.093zm90.566 6.332c-.522 0-.979-.288-1.223-.77a1.279 1.279 0 0 1 .066-1.267c.07-1.05.032-3.8-.065-4.562l-.044-.346c-.083-.66-.217-1.725-.394-2.989-.418.024-.897.056-1.332.084-.898.058-1.825.119-2.576.148-.3.011-.549.017-.757.017-.09 0-.174 0-.249-.003a3.854 3.854 0 0 1-.423-.031c-.224 1.073-.346 1.802-.36 1.956a1.284 1.284 0 0 1-1.407 1.165A1.289 1.289 0 0 1 85.99 30.8c.052-.584.612-3.543 1.41-6.382.481-1.714.982-3.161 1.488-4.302.702-1.583 1.43-2.604 2.227-3.119.431-.278.885-.42 1.35-.42.257 0 .512.044.76.13.805.276 1.35 1.087 1.877 2.798.318 1.03.643 2.436.964 4.18.194 1.05.39 2.24.583 3.537.022.087.035.175.04.265.25 1.712.44 3.226.543 4.041l.044.341c.067.526.12 1.907.124 3.213a29.66 29.66 0 0 1-.039 1.743c-.017.281-.04.503-.07.678-.141.812-.61 1.117-.978 1.23a1.317 1.317 0 0 1-.386.058zm-6.35-12.251c.71 0 2.201-.098 3.188-.162.41-.027.788-.051 1.121-.071-.099-.622-.198-1.213-.297-1.763-.575-3.216-1.033-4.607-1.286-5.19-.419.463-1.306 1.832-2.408 5.753-.13.46-.257.94-.381 1.432h.064zM108.1 38.71c-.267 0-.93-.086-1.328-.885a4.18 4.18 0 0 1-.286-.837 1.286 1.286 0 0 1 .799-1.51c.038-.32.075-.688.11-1.096.107-1.23.182-2.616.232-3.532.03-.541.049-.898.066-1.08.047-.513.074-1.648.073-3.065a3.784 3.784 0 0 0-.962-.3 6.303 6.303 0 0 0-1.146-.098c-.579 0-1.184.068-1.749.197-.899.204-1.661.551-2.038.929a1.292 1.292 0 0 1-.996.378 17.443 17.443 0 0 0-.304 3.098c0 .708-.581 1.284-1.296 1.284a1.292 1.292 0 0 1-1.295-1.284c0-2.382.512-5.048 1.566-8.15.986-2.903 2.276-5.645 3.16-7.456.101-.209.621-1.186 1.303-2.163 1.041-1.49 1.952-2.265 2.87-2.44.13-.024.262-.036.392-.036.505 0 .973.184 1.353.532.471.432.849 1.228 1.161 3.706.181 1.444.325 3.324.428 5.585.073 1.615.12 3.344.137 5.01.223.267.406.562.547.879.27.607.023 1.315-.548 1.635-.013.904-.039 1.59-.077 1.995-.012.133-.034.543-.058.978-.058 1.074-.146 2.695-.28 4.082a19.174 19.174 0 0 1-.251 1.869c-.046.232-.123.62-.31.967-.323.603-.8.77-1.144.802a1.38 1.38 0 0 1-.13.006h.001zm-1.154-25.117c-.2.206-.464.52-.797.995-.589.84-1.046 1.7-1.111 1.834-.999 2.045-2.386 5.027-3.343 8.112.495-.22 1.047-.4 1.634-.534a10.49 10.49 0 0 1 2.325-.263c.567 0 1.114.048 1.627.144a7.9 7.9 0 0 1 .454.098c-.022-1.05-.055-2.087-.098-3.09-.091-2.113-.224-3.96-.384-5.343-.11-.946-.219-1.56-.307-1.953zM19.599 32.124c-.597 0-1.079-.37-1.29-.991a5.405 5.405 0 0 1-.124-.447c-.074-.3-.167-.733-.285-1.324-.22-1.09-.5-2.593-.823-4.333l-.003-.014c-.176-.947-.358-1.923-.55-2.942-.387.073-1.05.242-2.14.628-.882.312-1.754.666-2.3.908-.054 1.746-.052 2.91-.038 3.157.007.123.04.335.073.54.11.694.233 1.48.01 2.178a1.298 1.298 0 0 1-1.633.833 1.285 1.285 0 0 1-.838-1.606c.023-.11-.01-.45-.099-1.008a8.073 8.073 0 0 1-.1-.795c-.035-.61-.004-4.935.368-9.286.216-2.519.506-4.603.864-6.194.527-2.348 1.192-3.645 2.155-4.204a2.11 2.11 0 0 1 1.072-.296c.438 0 .87.136 1.281.404.615.4 1.144 1.124 2.382 6.809.706 3.239 1.448 7.222 2.043 10.422.415 2.224.843 4.522 1.056 5.429.175.24.26.533.24.832-.056.845-.683 1.265-1.243 1.298a1.268 1.268 0 0 1-.079.002zM13.844 9.966c-.16.35-.364.915-.576 1.81-.345 1.462-.63 3.44-.843 5.877-.086.976-.16 2.023-.22 3.12a36.716 36.716 0 0 1 1.58-.586c.828-.284 1.536-.488 2.106-.606l.15-.03c-.34-1.749-.638-3.22-.91-4.486-.36-1.676-.682-3.028-.957-4.016a19.105 19.105 0 0 0-.33-1.084zM75.958 31.59c-.156 0-.31-.027-.459-.08-.843-.304-.945-1.191-.978-1.483a5.547 5.547 0 0 1-.033-.793c.017-.419.028-.856.04-1.28v-.009c.028-1.081.058-2.2.177-3.299.235-2.127 1.007-4.172 1.755-6.15.188-.5.366-.97.535-1.44l.143-.4.015.006c.118-.288.288-.694.469-1.095.67-1.49 1.012-1.956 1.591-2.166a1.35 1.35 0 0 1 1.183.12c.654.404 1.004 1.128 1.347 4.354.162 1.53.294 3.37.411 5.14a1.27 1.27 0 0 1 .094 1.427c.109 1.65.2 2.958.289 3.58a1.288 1.288 0 0 1-1.284 1.463c-.64 0-1.191-.474-1.282-1.103-.095-.669-.183-1.884-.284-3.411-.147 0-.294.004-.438.01-.447.02-.765.06-.98.099a1.295 1.295 0 0 1-1.075.882c-.04.678-.058 1.374-.076 2.05v.005c-.011.433-.023.88-.04 1.32-.003.046-.002.107 0 .173.326.45.325 1.066-.018 1.519a1.38 1.38 0 0 1-1.102.561zm3.249-13.047c-.106.285-.214.57-.32.85-.393 1.04-.796 2.107-1.106 3.163a9.784 9.784 0 0 1 1.197-.132c.165-.01.35-.015.54-.018a130.051 130.051 0 0 0-.311-3.863zM23.658 28.962a1.302 1.302 0 0 1-1.24-.915c-.648-2.142-.96-4.967-.88-7.974a1.28 1.28 0 0 1 .021-1.708 4.97 4.97 0 0 1 .072-.075c.305-3.897 1.23-7.263 2.61-9.49 1.212-1.956 2.032-2.3 2.544-2.389.096-.016.193-.025.29-.025.367 0 .713.121.999.35 2.533 2.032 3.327 6.18 4.027 9.839.265 1.383.515 2.687.83 3.728a1.285 1.285 0 0 1-1.241 1.653 1.303 1.303 0 0 1-1.241-.915 25.71 25.71 0 0 1-.537-2.18 1.309 1.309 0 0 1-.592-.17c-.349-.197-.851-.302-1.453-.302a6.36 6.36 0 0 0-1.463.183c-.822.194-1.63.54-2.253.958-.134 2.933.137 5.759.748 7.78a1.285 1.285 0 0 1-1.24 1.652zm3.367-19.644a8.49 8.49 0 0 0-.577.827c-.917 1.48-1.622 3.718-2.008 6.355.44-.174.896-.316 1.362-.427a8.936 8.936 0 0 1 2.054-.25c.533 0 1.033.054 1.494.161-.45-2.305-1.078-5.119-2.325-6.665zM43.35 26.595a1.3 1.3 0 0 1-1.296-1.19l-.014-.127a200.43 200.43 0 0 1-.047-.455c-.04-.371-.091-.876-.149-1.425l-.005-.05c-.14-1.353-.3-2.884-.361-3.452l-.001-.006a52.65 52.65 0 0 1-.106-1.268c-.286.04-.653.103-1.1.203-1.017.226-1.704.47-2.016.605l-.028.035c.02.429.044.768.068.996.24.39.255.883.031 1.288a1.33 1.33 0 0 1-1.54.654c-.367-.105-.838-.396-.996-1.192a6.477 6.477 0 0 1-.085-.633 30.124 30.124 0 0 1-.093-1.584c-.039-1.038-.055-2.26-.044-2.478l.001-.019c.018-.282.036-.631.053-.97.076-1.495.18-3.54.51-5.445.434-2.501 1.163-4.145 2.23-5.026a3.222 3.222 0 0 1 2.072-.751c.162 0 .328.012.492.035 1.215.174 1.567 1.625 1.736 2.322.192.796.371 1.872.545 3.29.252 2.053.444 4.402.598 6.457l.006.004a1.281 1.281 0 0 1 .137 1.924c.043.569.078 1.007.107 1.289l.357 3.412.005.047a1317.55 1317.55 0 0 0 .213 2.019l.006.066c.077.807-.528 1.354-1.156 1.418a1.327 1.327 0 0 1-.129.007h-.001zm-5.194-9.954-.002.093c.518-.165 1.11-.321 1.69-.446.35-.075.833-.168 1.336-.231a146.12 146.12 0 0 0-.476-5.21c-.253-2.215-.483-3.32-.63-3.858a.923.923 0 0 0-.054.041c-.318.263-.915 1.065-1.334 3.487-.304 1.754-.404 3.711-.477 5.14v.01c-.019.352-.035.685-.053.973v.001zm25.806 8.332c-.236 0-.468-.064-.67-.186-.793-.476-1.118-1.5-1.087-3.424.02-1.247.19-2.94.493-4.894.575-3.715 1.581-8.102 2.563-11.177.42-1.314.823-2.356 1.198-3.095C66.88 1.365 67.5.41 68.552.41c.043 0 .087.001.131.005.723.057 1.356.397 1.831.983.85 1.046 1.202 2.905 1.11 5.85-.066 2.07-.346 4.375-.555 6.02a7.1 7.1 0 0 1 .137.034c.688.18 1.103.88.926 1.563a1.293 1.293 0 0 1-1.363.96 4.21 4.21 0 0 0-.01.178c-.017.813.196 3.244.338 4.852.04.458.078.888.102 1.192.013.164.022.287.027.375.004.064.006.113.006.156a1.3 1.3 0 1 1-2.595-.057c-.016-.245-.07-.851-.121-1.44-.156-1.766-.368-4.181-.347-5.134.003-.103.009-.222.019-.36-.958.064-1.884.296-2.597.654-.08.04-.164.072-.25.095a51.78 51.78 0 0 0-.424 3.147c-.224 2.25-.092 3.068-.03 3.305.41.413.493 1.047.188 1.556-.233.388-.66.628-1.114.628zM68.719 3.46c-.226.465-.546 1.235-.95 2.487-.594 1.838-1.21 4.22-1.736 6.708-.052.244-.103.49-.152.734a10.415 10.415 0 0 1 2.61-.387c.214-1.682.48-3.866.542-5.833.066-2.103-.132-3.175-.315-3.709zM57.248 24.972c-.354 0-.69-.14-.949-.393a1.277 1.277 0 0 1-.303-1.36c-.02-.239-.06-.551-.077-.694a8.173 8.173 0 0 1-.041-.367c-.062-.805-.214-1.675-.361-2.516l-.001-.005c-.068-.39-.139-.792-.2-1.19a7.296 7.296 0 0 1-.065-.633c-1.113.002-2.407.21-3.66.412a48.9 48.9 0 0 1-1.867.278c-.078.43-.139.834-.18 1.204-.132 1.195-.018 1.605-.006 1.645a1.283 1.283 0 0 1-.637 1.686 1.3 1.3 0 0 1-1.725-.631c-.74-1.607.156-5.35.576-6.884.424-1.55 1.619-5.42 3.553-7.844.566-.71 1.16-1.243 1.765-1.586.566-.32 1.147-.482 1.73-.482.219 0 .44.024.658.07.668.14 1.153.618 1.481 1.462.245.63.413 1.476.545 2.746.18 1.73.233 3.835.275 5.527l.016.64a1.27 1.27 0 0 1 .036 1.096c.019.452.04.747.063.9.06.377.128.768.194 1.147.158.903.321 1.835.392 2.765v.006c.003.031.02.172.03.24.03.248.072.585.093.88.015.198.019.359.012.493-.037.779-.49 1.117-.758 1.25a1.318 1.318 0 0 1-.59.138zM54.576 8.225c-.354.12-.791.487-1.24 1.048-1.085 1.362-2.188 3.79-2.979 6.549.265-.041.538-.085.818-.13 1.327-.215 2.696-.436 3.988-.446-.036-1.435-.084-3.163-.212-4.626-.118-1.355-.27-2.052-.375-2.395z" fill="#000"/><path d="M68.551.822c.032 0 .064.001.097.004.603.048 1.133.334 1.533.828.785.966 1.108 2.74 1.019 5.584-.069 2.176-.372 4.575-.6 6.35.168.033.333.07.496.113a.873.873 0 0 1-.44 1.69 7.07 7.07 0 0 0-.268-.064c-.03.283-.049.512-.052.669-.019.835.196 3.28.338 4.897.042.478.079.89.103 1.188.013.162.021.281.026.365.003.057.005.1.005.137a.877.877 0 1 1-1.748-.056c-.014-.23-.07-.864-.124-1.481-.154-1.755-.366-4.157-.345-5.088.005-.207.026-.474.06-.8-1.167.012-2.341.26-3.255.72a.868.868 0 0 1-.39.093h-.033a53.743 53.743 0 0 0-.477 3.474c-.263 2.641-.045 3.41.02 3.57a.874.874 0 0 1-1.004 1.423c-.65-.39-.915-1.307-.886-3.068.02-1.229.188-2.902.488-4.84.572-3.695 1.572-8.059 2.549-11.115.413-1.294.808-2.315 1.174-3.036.37-.73.897-1.557 1.714-1.557m-3.223 13.183c1.035-.39 2.224-.594 3.404-.594l.132.001c.223-1.744.525-4.118.59-6.23.097-3.06-.351-4.087-.628-4.427a.644.644 0 0 0-.12-.118c-.204.28-.66 1.076-1.341 3.188-.599 1.85-1.219 4.247-1.747 6.748-.102.482-.199.96-.29 1.432m-.917 8.937h-.001.001zM40.432 4.717c.142 0 .286.01.432.03.817.118 1.149 1.036 1.385 2.01.189.781.364 1.842.537 3.244.264 2.152.46 4.63.61 6.638.054.03.105.063.153.1a.874.874 0 0 1-.04 1.423c.05.66.09 1.184.123 1.505.062.572.222 2.106.363 3.46a1928 1928 0 0 0 .212 2.017l.006.065a.876.876 0 0 1-.864.976c-.395 0-.816-.274-.875-.823l-.014-.126-.048-.454-.153-1.474c-.141-1.352-.3-2.885-.362-3.454v-.004a72.12 72.12 0 0 1-.137-1.685c-.397.035-.927.113-1.585.26-1.116.249-1.898.532-2.205.682a.869.869 0 0 1-.175.202c.023.53.054 1.008.09 1.296.201.267.24.638.067.95a.915.915 0 0 1-.8.49.908.908 0 0 1-.25-.035c-.369-.106-.604-.4-.698-.876a6.194 6.194 0 0 1-.08-.592 29.69 29.69 0 0 1-.09-1.562 55.654 55.654 0 0 1-.044-2.456c.017-.282.035-.618.053-.975.075-1.484.179-3.516.505-5.397.416-2.402 1.099-3.966 2.087-4.782a2.782 2.782 0 0 1 1.798-.653m-2.698 12.597c.106-.04.222-.081.35-.124a17.719 17.719 0 0 1 1.85-.5 14.074 14.074 0 0 1 1.695-.267c-.13-1.726-.296-3.773-.507-5.62-.333-2.922-.631-3.972-.779-4.338a1.03 1.03 0 0 0-.599.253c-.442.365-1.058 1.308-1.477 3.732-.308 1.777-.409 3.748-.482 5.188-.019.357-.036.695-.054.984-.003.107-.002.36.003.692m.274.937v.002-.003.001zM54.8 6.024c.19 0 .38.02.569.06 1.098.23 1.472 1.705 1.695 3.848.179 1.716.231 3.812.274 5.497l.018.74a.87.87 0 0 1 .03.9c.018.472.04.847.072 1.047.06.38.128.774.195 1.155.156.892.317 1.815.387 2.725v.005l.03.26c.03.243.072.574.093.86.013.182.017.327.01.445-.025.542-.3.79-.527.902a.897.897 0 0 1-.398.094.924.924 0 0 1-.648-.271.874.874 0 0 1-.175-1.004c-.017-.254-.065-.638-.087-.81a8.076 8.076 0 0 1-.039-.348c-.063-.825-.217-1.705-.366-2.556a65.52 65.52 0 0 1-.2-1.186 9.725 9.725 0 0 1-.08-.974 8.362 8.362 0 0 0-.388-.009c-1.15 0-2.462.212-3.742.418-.758.123-1.477.239-2.158.31a19.147 19.147 0 0 0-.24 1.533c-.159 1.43.016 1.83.023 1.846a.873.873 0 0 1-1.585.73c-.704-1.528.28-5.446.599-6.61.417-1.527 1.591-5.333 3.478-7.698.532-.668 1.086-1.167 1.644-1.483.501-.284 1.01-.426 1.516-.426m-5.017 10.298c.464-.063.954-.143 1.463-.225 1.348-.217 2.729-.44 4.015-.44.113 0 .225.001.337.005l-.005-.19c-.037-1.484-.083-3.33-.22-4.886-.168-1.93-.41-2.6-.518-2.813a.917.917 0 0 0-.043 0c-.664 0-1.34.662-1.808 1.249-1.168 1.464-2.349 4.107-3.159 7.069l-.061.23m-22.71-9.524c.268 0 .521.088.732.256 2.414 1.937 3.193 6.006 3.88 9.597.267 1.392.518 2.707.84 3.77a.873.873 0 0 1-1.671.505c-.23-.762-.422-1.615-.606-2.523a.872.872 0 0 1-.716-.065c-.419-.238-1-.359-1.666-.359-.486 0-1.016.064-1.563.194-.965.229-1.887.644-2.565 1.14-.157 3.022.116 6.002.755 8.112a.874.874 0 0 1-1.671.507c-.654-2.158-.952-5.05-.858-8.022a.873.873 0 0 1-.091-1.27c.053-.058.109-.115.167-.172.264-3.565 1.097-7.09 2.561-9.455 1.254-2.022 2.009-2.153 2.257-2.196a1.26 1.26 0 0 1 .215-.019m-3.152 10.38a9.582 9.582 0 0 1 1.98-.705 8.512 8.512 0 0 1 1.954-.239c.754 0 1.448.117 2.04.348-.579-3.008-1.263-6.291-2.875-7.89-.225.225-.569.65-.936 1.242-1.032 1.666-1.802 4.261-2.163 7.245zM13.917 7.34c.35 0 .705.111 1.046.334.497.323 1.004 1.04 2.204 6.552.704 3.23 1.445 7.211 2.04 10.41.43 2.307.873 4.683 1.08 5.535a.87.87 0 0 1 .21.627c-.045.684-.553.897-.846.914a.94.94 0 0 1-.053.001c-.23 0-.676-.086-.888-.709a5.13 5.13 0 0 1-.115-.414 34.473 34.473 0 0 1-.281-1.307c-.218-1.088-.498-2.589-.822-4.328-.19-1.023-.397-2.131-.613-3.27a.97.97 0 0 1-.069-.07c-.316.03-1.049.161-2.572.7a32.816 32.816 0 0 0-2.57 1.028c-.06 1.809-.062 3.143-.045 3.445.008.142.042.355.078.58.102.65.218 1.386.024 1.993a.874.874 0 1 1-1.663-.533c.068-.212-.032-.846-.086-1.187-.042-.271-.083-.527-.095-.755-.035-.604-.004-4.9.367-9.23.213-2.501.501-4.567.855-6.141.493-2.198 1.116-3.449 1.96-3.939a1.69 1.69 0 0 1 .854-.237m-2.169 14.065c.62-.26 1.4-.562 2.177-.83.81-.278 1.502-.477 2.053-.592a6.38 6.38 0 0 1 .557-.093 244.746 244.746 0 0 0-.992-4.909c-.361-1.684-.685-3.043-.962-4.039-.355-1.278-.566-1.714-.642-1.844l-.011-.004c-.097.063-.574.473-1.074 2.59-.35 1.481-.636 3.478-.852 5.934a100.291 100.291 0 0 0-.255 3.787m95.522-10.33c.392 0 .762.145 1.063.42.35.322.717.963 1.031 3.457.18 1.434.324 3.303.425 5.554.08 1.769.124 3.573.139 5.145.24.264.435.561.58.889a.873.873 0 0 1-.58 1.2c-.01 1.01-.037 1.795-.077 2.23-.014.14-.035.536-.06.994-.058 1.07-.146 2.687-.279 4.064a19.002 19.002 0 0 1-.245 1.83c-.087.441-.271 1.36-1.08 1.438a.964.964 0 0 1-.089.004c-.238 0-.665-.088-.946-.653a3.796 3.796 0 0 1-.256-.755.873.873 0 0 1 .772-1.082c.046-.347.096-.8.148-1.392.107-1.238.183-2.628.232-3.548.029-.535.048-.888.065-1.063.052-.559.079-1.786.075-3.342-.406-.247-.89-.386-1.306-.463a6.768 6.768 0 0 0-1.225-.106c-.606 0-1.24.07-1.846.208-.989.225-1.807.605-2.244 1.043a.869.869 0 0 1-1.025.155c-.249 1.232-.395 2.447-.395 3.608a.873.873 0 0 1-1.746 0c0-2.337.505-4.961 1.545-8.021.979-2.882 2.261-5.608 3.14-7.409a19.05 19.05 0 0 1 1.271-2.108c.974-1.395 1.8-2.115 2.601-2.267.105-.02.209-.03.311-.03m-6.261 14.296c.643-.42 1.473-.755 2.416-.97a10.128 10.128 0 0 1 2.228-.252c.537 0 1.059.045 1.548.136.345.064.668.15.967.254-.02-1.168-.055-2.423-.109-3.667-.091-2.121-.224-3.979-.386-5.371-.198-1.707-.398-2.384-.498-2.634-.192.106-.641.44-1.376 1.49a17.774 17.774 0 0 0-1.144 1.89c-1.234 2.527-2.726 5.813-3.646 9.124M79.68 13.728c.17 0 .338.047.486.138.523.324.83 1.013 1.153 4.05.168 1.588.302 3.488.42 5.262a.873.873 0 0 1 .075 1.154c.11 1.663.205 3.078.3 3.745a.873.873 0 1 1-1.728.248c-.102-.714-.198-2.113-.306-3.76a12.061 12.061 0 0 0-.854.006c-.652.029-1.075.102-1.323.167a.872.872 0 0 1-1.106.79c-.062.814-.084 1.655-.106 2.474-.011.433-.023.882-.04 1.32-.004.094 0 .224.008.341a.874.874 0 0 1 .057 1.122.957.957 0 0 1-.762.395.925.925 0 0 1-.312-.055c-.599-.215-.673-.865-.705-1.143a5.177 5.177 0 0 1-.03-.73c.017-.426.028-.868.04-1.296.028-1.073.057-2.184.174-3.266.229-2.076.993-4.098 1.732-6.053.189-.5.367-.973.537-1.446.05-.131.322-.808.615-1.46.669-1.487.958-1.802 1.352-1.945a.949.949 0 0 1 .322-.057m-2.497 9.402c.402-.14.975-.25 1.816-.296a13.885 13.885 0 0 1 .966-.018c-.099-1.468-.21-2.999-.342-4.33a40.78 40.78 0 0 0-.195-1.655c-.149.341-.29.682-.398.96-.174.483-.362.98-.544 1.463-.482 1.276-.976 2.581-1.303 3.877zm15.28-6.142c.238 0 .447.046.617.105.662.228 1.13.961 1.615 2.53.313 1.015.634 2.406.953 4.134.217 1.18.414 2.405.583 3.546.02.07.031.144.033.22.252 1.713.44 3.215.546 4.055l.044.342c.065.512.117 1.872.12 3.163.002.483-.003 1.173-.037 1.718a5.959 5.959 0 0 1-.066.634c-.084.487-.315.792-.687.907a.933.933 0 0 1-1.102-.502.874.874 0 0 1 .1-.944c.084-1.002.043-3.959-.06-4.754l-.043-.346c-.09-.713-.244-1.94-.448-3.37-.49.024-1.15.067-1.726.105-.894.058-1.819.118-2.564.147a20.038 20.038 0 0 1-.978.014c-.269-.007-.53-.026-.756-.136-.28 1.29-.44 2.23-.46 2.436a.873.873 0 1 1-1.738-.157c.052-.573.605-3.493 1.397-6.31.476-1.695.97-3.123 1.468-4.246.669-1.508 1.347-2.47 2.074-2.94.407-.263.789-.351 1.115-.351m-2.887 9.962c.723 0 2.238-.099 3.215-.162a145.37 145.37 0 0 1 1.582-.098 98.105 98.105 0 0 0-.37-2.217c-.794-4.441-1.385-5.506-1.558-5.736a.417.417 0 0 0-.15.068c-.393.255-1.453 1.366-2.81 6.193a56.923 56.923 0 0 0-.488 1.866l.045.003c.101.01.198.036.286.077.066.004.15.006.248.006M5.359 30.302c.71 0 1.403.309 2.021.915 1.329 1.302 2.452 4.091 3.34 8.291.377 1.786.605 3.354.708 4.129.261 1.977.195 2.124.102 2.328a.88.88 0 0 1-.865.514.89.89 0 0 1-.793-.68.872.872 0 0 1-.01-.435c-.036-.536-.211-2.069-.547-3.936a.869.869 0 0 1-.607.246c-.3 0-.59-.155-.752-.43a.808.808 0 0 0-.283-.036c-.214 0-.566.04-1.121.196-.797.224-1.673.593-2.313.863-.292.123-.544.229-.739.3l-.017.007.01.197c.02.379.316 2.605.554 3.781.325.163.526.52.473.9-.027.194-.06.34-.107.463-.18.483-.57.653-.888.653h-.04c-.29-.014-.683-.157-.909-.766a5.156 5.156 0 0 1-.176-.623 24.907 24.907 0 0 1-.302-1.642c-.18-1.15-.336-2.422-.348-2.685-.016-.362-.045-.784-.078-1.273-.114-1.674-.269-3.966-.055-6.005.123-1.177.35-2.13.693-2.91.438-.996 1.069-1.697 1.875-2.083.391-.187.785-.28 1.174-.28M3.365 40.74l.197-.083c.789-.332 1.868-.786 2.876-1.028a5.344 5.344 0 0 1 1.234-.167c.117 0 .229.006.336.018.438.048.761.189.998.364a43.835 43.835 0 0 0-.166-.75c-.847-3.698-1.938-6.207-2.995-6.884a.882.882 0 0 0-.484-.161.974.974 0 0 0-.423.11c-.845.404-1.378 1.614-1.586 3.598-.17 1.62-.084 3.473.013 4.983m.284 1.466.001-.002v.002zM68.551 0c-.612 0-1.167.26-1.649.772-.376.4-.65.901-.824 1.244-.385.759-.796 1.82-1.223 3.155-.988 3.093-2 7.503-2.577 11.237-.305 1.973-.478 3.684-.498 4.949-.016.982.054 1.708.22 2.283.202.697.55 1.187 1.067 1.497a1.733 1.733 0 0 0 2.372-.584 1.677 1.677 0 0 0-.162-1.954c-.052-.282-.136-1.108.06-3.075.086-.861.214-1.83.382-2.886l.065-.03c.547-.276 1.232-.47 1.96-.565-.006 1.034.198 3.36.349 5.073.048.54.101 1.149.119 1.406a1.66 1.66 0 0 0 .087.63 1.722 1.722 0 0 0 1.992 1.126 1.702 1.702 0 0 0 1.362-1.7c0-.05-.002-.106-.006-.177a16.017 16.017 0 0 0-.028-.385c-.024-.301-.06-.715-.103-1.194-.122-1.392-.32-3.654-.335-4.608a1.71 1.71 0 0 0 1.359-1.247c.112-.433.05-.884-.177-1.27a1.698 1.698 0 0 0-.833-.72c.204-1.62.453-3.766.514-5.715.047-1.492-.016-2.69-.194-3.664-.192-1.054-.52-1.857-1.005-2.453-.55-.678-1.286-1.071-2.128-1.138A2.176 2.176 0 0 0 68.55 0zm-2.124 12.83.02-.092c.522-2.474 1.135-4.842 1.724-6.668.143-.44.274-.819.393-1.144.058.622.073 1.369.046 2.231-.057 1.816-.292 3.828-.496 5.45a11 11 0 0 0-1.688.222h.001zM40.432 3.894c-.86 0-1.671.293-2.345.849-.601.496-1.088 1.184-1.489 2.1-.374.858-.663 1.895-.884 3.17-.335 1.93-.44 3.99-.517 5.493-.017.337-.034.685-.052.966v.003l-.001.019v.002c-.011.23.004 1.446.044 2.512.025.664.057 1.204.094 1.607.026.277.056.497.091.673.209 1.052.899 1.397 1.292 1.509.159.045.323.068.487.068.638 0 1.23-.353 1.544-.922.279-.503.277-1.11.01-1.608-.014-.14-.029-.34-.045-.625.348-.13.926-.312 1.703-.486.228-.05.434-.091.618-.124.027.344.051.618.072.825l.002.016c.061.57.22 2.098.36 3.446v.002l.155 1.474.047.456.014.127v.002c.05.457.262.866.598 1.15a1.734 1.734 0 0 0 2.414-.178c.31-.352.456-.81.41-1.287v-.003l-.006-.065a2.298 2.298 0 0 0-.01-.08l-.203-1.942-.004-.047c-.14-1.333-.297-2.844-.358-3.413a49.456 49.456 0 0 1-.092-1.109l.022-.029a1.676 1.676 0 0 0-.19-2.236c-.153-2.02-.342-4.302-.588-6.307-.176-1.433-.357-2.524-.554-3.335-.112-.464-.278-1.06-.562-1.545-.461-.786-1.082-1.026-1.522-1.09a3.976 3.976 0 0 0-.555-.04v.002zM38.604 16.17l.026-.492c.072-1.419.171-3.362.47-5.093.234-1.347.52-2.151.758-2.625.121.631.268 1.565.424 2.932.182 1.595.33 3.338.445 4.813-.37.057-.71.124-.975.181-.386.083-.776.18-1.148.283zM54.8 5.202c-.658 0-1.312.181-1.942.538-.653.369-1.288.937-1.887 1.69-1.981 2.483-3.197 6.415-3.627 7.99-.176.642-.501 1.92-.703 3.26-.272 1.813-.224 3.087.15 3.896.277.604.891.994 1.564.994a1.722 1.722 0 0 0 1.614-1.115c.15-.404.138-.84-.03-1.234-.015-.076-.084-.477.026-1.469.03-.274.072-.569.124-.88.507-.068 1.028-.152 1.572-.24 1.09-.176 2.211-.357 3.201-.398.01.103.023.195.035.276.062.401.133.807.202 1.2v.002c.146.83.297 1.69.357 2.476.007.091.02.195.043.386.016.125.047.381.068.598a1.68 1.68 0 0 0 .432 1.696 1.775 1.775 0 0 0 2.031.332c.267-.132.488-.321.655-.56.203-.29.315-.64.334-1.037.007-.15.003-.327-.013-.54a18.61 18.61 0 0 0-.096-.9v-.006a14.898 14.898 0 0 1-.026-.219v-.004c-.073-.949-.238-1.89-.398-2.802a59.836 59.836 0 0 1-.192-1.14v-.002a8.129 8.129 0 0 1-.056-.768 1.67 1.67 0 0 0-.041-1.261l-.014-.553v-.002c-.043-1.698-.096-3.811-.278-5.557-.136-1.307-.311-2.186-.57-2.85-.377-.97-.979-1.55-1.788-1.719a3.618 3.618 0 0 0-.747-.078zm-3.85 10.11c.757-2.448 1.748-4.566 2.721-5.786.24-.301.452-.512.627-.655.075.384.16.954.232 1.785.115 1.314.165 2.85.2 4.19-1.193.049-2.425.247-3.621.44h-.003c-.052.01-.105.018-.156.026zM27.074 5.976c-.121 0-.243.01-.364.031-.272.047-.646.15-1.129.522-.55.426-1.108 1.1-1.703 2.06-1.396 2.253-2.337 5.628-2.658 9.529a1.67 1.67 0 0 0-.422 1.181c.014.332.123.645.313.91-.067 2.994.25 5.808.9 7.954.108.354.323.657.623.876a1.745 1.745 0 0 0 1.528.259c.44-.133.8-.428 1.015-.83.211-.394.256-.847.127-1.275-.584-1.931-.85-4.622-.74-7.437.554-.34 1.241-.62 1.94-.785.476-.114.935-.17 1.362-.17.52 0 .96.087 1.24.246.142.08.294.14.45.177.168.78.323 1.392.486 1.932.107.354.323.658.623.877a1.747 1.747 0 0 0 1.528.26c.44-.133.8-.428 1.015-.83.212-.394.257-.847.127-1.275-.308-1.022-.556-2.317-.819-3.688-.713-3.728-1.522-7.953-4.173-10.08l-.001-.002h-.001a2.015 2.015 0 0 0-1.268-.442zm-2.107 9.9c.395-2.27 1.046-4.234 1.843-5.52.071-.115.142-.224.21-.325.883 1.39 1.409 3.53 1.797 5.44-.309-.04-.63-.06-.962-.06-.694 0-1.42.089-2.154.263-.248.058-.492.126-.734.202zm-11.05-9.358c-.451 0-.884.12-1.288.354-1.072.622-1.798 2-2.352 4.468-.361 1.61-.655 3.712-.871 6.248-.374 4.366-.404 8.72-.37 9.343.016.268.06.543.105.834.072.454.105.746.1.87-.119.41-.076.844.12 1.227a1.7 1.7 0 0 0 1.002.845 1.736 1.736 0 0 0 1.543-.242c.298-.214.515-.512.627-.859.252-.788.115-1.66.004-2.361-.03-.187-.063-.399-.068-.5v-.003c-.013-.22-.015-1.29.03-2.864.535-.23 1.278-.525 2.029-.79a19.009 19.009 0 0 1 1.66-.518l.467 2.5.005.032.002.009c.324 1.738.604 3.238.822 4.33.12.596.214 1.034.29 1.34.049.203.092.355.134.48.195.576.542.879.798 1.031a1.744 1.744 0 0 0 .997.24 1.784 1.784 0 0 0 1.014-.403c.261-.216.58-.615.624-1.279.024-.364-.07-.72-.267-1.023-.215-.942-.63-3.173-1.034-5.335v-.003c-.597-3.203-1.34-7.189-2.046-10.433-.565-2.595-1.009-4.29-1.398-5.332-.345-.927-.671-1.413-1.161-1.733a2.794 2.794 0 0 0-1.518-.473zm-1.253 13.636c.053-.86.113-1.686.182-2.466.212-2.418.492-4.376.833-5.82.046-.195.092-.372.136-.534.261.963.564 2.245.902 3.815.25 1.168.524 2.51.832 4.086-.539.126-1.178.316-1.905.565a35.62 35.62 0 0 0-.98.354zm94.606-9.9c-.157 0-.315.014-.472.044-.558.105-1.094.387-1.639.862-.479.417-.97.99-1.5 1.75a19.726 19.726 0 0 0-1.336 2.218c-.889 1.82-2.185 4.578-3.179 7.503-1.043 3.068-1.562 5.72-1.587 8.102-.108-.848-.261-2.012-.448-3.284a1.691 1.691 0 0 0-.045-.304 104.556 104.556 0 0 0-.582-3.532c-.324-1.758-.653-3.18-.975-4.225-.27-.874-.534-1.499-.832-1.965-.359-.562-.787-.923-1.309-1.103a2.743 2.743 0 0 0-.9-.153c-.55 0-1.083.165-1.585.489-.879.568-1.635 1.616-2.382 3.299-.513 1.157-1.02 2.623-1.507 4.355-.817 2.908-1.368 5.842-1.423 6.455a1.705 1.705 0 0 0 1.713 1.845c.432 0 .845-.16 1.164-.449.314-.286.508-.675.546-1.096.01-.113.103-.678.28-1.552l.07.002a21.054 21.054 0 0 0 1.035-.014c.757-.03 1.687-.09 2.586-.149l.938-.06c.151 1.096.267 2.014.341 2.605l.004.035.04.312c.084.655.132 3.262.07 4.39a1.683 1.683 0 0 0-.03 1.57 1.78 1.78 0 0 0 2.116.923c.393-.12 1.08-.483 1.266-1.553.033-.19.057-.426.076-.722.034-.566.04-1.274.039-1.768-.004-1.342-.057-2.714-.128-3.263l-.035-.28-.008-.06c0-.007 0-.013-.002-.02a1.72 1.72 0 0 0 1.625 1.145c.947 0 1.718-.76 1.718-1.695 0-.834.082-1.742.243-2.708.355-.058.681-.224.938-.482.25-.25.862-.595 1.831-.816a7.56 7.56 0 0 1 1.653-.186c.382 0 .741.03 1.066.091.227.043.436.099.619.166-.002 1.278-.028 2.29-.072 2.759-.017.19-.036.53-.066 1.093-.05.915-.125 2.296-.231 3.522-.027.311-.055.599-.084.86a1.694 1.694 0 0 0-.814 1.878c.096.387.197.68.316.919.201.404.484.706.84.898a1.83 1.83 0 0 0 1.039.21c.633-.06 1.157-.423 1.478-1.02.215-.401.299-.826.35-1.08.094-.47.178-1.094.256-1.908.135-1.394.224-3.02.282-4.097.022-.412.045-.839.057-.965a27.55 27.55 0 0 0 .074-1.812c.247-.188.437-.44.55-.736a1.665 1.665 0 0 0-.032-1.281 4.12 4.12 0 0 0-.515-.86 143.51 143.51 0 0 0-.136-4.884c-.103-2.273-.247-4.163-.43-5.618-.328-2.608-.737-3.446-1.291-3.954a2.427 2.427 0 0 0-1.643-.645l-.001-.002zm-4.908 13.586c.928-2.765 2.153-5.389 3.057-7.24.06-.123.513-.972 1.079-1.78.068-.098.133-.188.195-.27.045.288.092.633.139 1.043.16 1.373.292 3.21.382 5.313.036.834.065 1.691.086 2.56a9.395 9.395 0 0 0-1.647-.14 10.903 10.903 0 0 0-3.291.514zm-12.304 2.28c.081-.309.163-.61.245-.904.778-2.767 1.437-4.217 1.877-4.965.247.78.59 2.116.993 4.364.074.414.15.853.224 1.311l-.66.043c-.746.048-1.898.124-2.68.15h.001zM79.683 12.906a1.81 1.81 0 0 0-.619.11c-.387.14-.686.376-.967.764-.247.34-.505.824-.863 1.622-.106.235-.211.479-.305.7l-.035-.014-.3.832a91.32 91.32 0 0 1-.531 1.431v.002c-.757 2.002-1.54 4.072-1.78 6.248v.002c-.12 1.115-.15 2.242-.178 3.332v.012c-.012.42-.023.856-.04 1.271-.01.251.003.579.035.854.02.172.056.49.202.824a1.789 1.789 0 0 0 1.655 1.105c.566 0 1.092-.266 1.443-.73.424-.558.45-1.305.098-1.885v-.032c.019-.445.03-.896.042-1.332.015-.572.03-1.158.06-1.734a1.725 1.725 0 0 0 .971-.839c.179-.023.408-.044.696-.057l.024-.001c.09 1.351.172 2.425.261 3.047.058.404.26.773.572 1.04a1.73 1.73 0 0 0 1.377.4 1.702 1.702 0 0 0 1.454-1.914c-.085-.593-.173-1.847-.278-3.436a1.67 1.67 0 0 0-.109-1.653c-.115-1.74-.245-3.537-.405-5.042-.165-1.548-.33-2.534-.533-3.194-.224-.73-.526-1.168-1.007-1.466a1.783 1.783 0 0 0-.94-.266zm-1.308 9.152c.176-.543.372-1.089.573-1.63.042.53.08 1.064.117 1.58l-.112.005c-.203.011-.395.027-.578.045zM5.36 29.481c-.522 0-1.042.122-1.547.364-.993.475-1.76 1.314-2.28 2.497-.377.858-.625 1.889-.757 3.15-.22 2.107-.063 4.44.052 6.142.033.484.061.901.078 1.255v.002c.015.32.183 1.662.356 2.77.11.703.216 1.274.314 1.698.068.297.135.534.206.722.295.796.902 1.273 1.664 1.307.025.002.052.002.08.002a1.777 1.777 0 0 0 1.683-1.194c.067-.18.114-.38.15-.633a1.684 1.684 0 0 0-.541-1.48 54.184 54.184 0 0 1-.442-2.978l.198-.084c.62-.26 1.468-.618 2.214-.828a4.49 4.49 0 0 1 .745-.156c.299.275.692.441 1.108.457.208 1.287.33 2.336.37 2.827-.033.231-.018.469.045.695a1.733 1.733 0 0 0 3.249.28c.191-.423.23-.731-.039-2.764a57.337 57.337 0 0 0-.719-4.19c-.45-2.135-.97-3.941-1.545-5.366-.607-1.508-1.268-2.6-2.021-3.338-.773-.757-1.68-1.157-2.622-1.157h.001zM4.144 39.524c-.057-1.226-.072-2.522.05-3.684.239-2.29.861-2.822 1.118-2.945a.551.551 0 0 1 .039-.017l.029.018c.601.385 1.594 2.122 2.486 5.748a4.291 4.291 0 0 0-.194-.004c-.43 0-.899.062-1.436.191-.713.17-1.444.435-2.093.693z" fill="#fff"/><path d="M54.366 88.503c-.191 0-.555-.06-.848-.463a3.084 3.084 0 0 1-.206-.335c-.11-.202-.25-.487-.417-.85a53.263 53.263 0 0 1-.507-1.141 16.21 16.21 0 0 1-.992.89c-.89.732-1.297.882-1.666.886h-.011c-.28 0-.542-.103-.736-.289-.519-.494-.411-1.24-.285-1.758.148-.605.461-1.376.839-2.061.107-.195.214-.373.319-.531-.26-.667-.462-1.389-.675-2.147-.916-3.27-1.686-5.264-4.646-5.384-4.771-.194-11.967-.486-17.623-.492-.248.079-1.106.395-2.057 1.264-.362.332-.662.881-.952 1.413-.31.564-.628 1.148-1.09 1.623a2.805 2.805 0 0 1-.098.095c.043.682.019 2.067-.78 2.726a.963.963 0 0 1-.77.206c-.495-.081-.681-.412-1.052-1.072-.18-.318-.39-.709-.571-1.043-1.186 1.011-1.88 1.494-2.52 1.494-.225 0-.435-.061-.623-.182-.344-.222-.523-.595-.503-1.052.013-.302.107-.574.157-.72.469-1.382 1.123-2.545 1.944-3.46.02-.472.073-.988.162-1.57.197-1.302.503-2.417.54-2.55.056-.21 1.185-4.35 3.034-6.922.727-1.013 1.525-1.766 2.23-2.43 1.293-1.22 1.781-1.777 1.781-2.786 0-1.593.091-3.19.27-4.749-.017-.032-.032-.064-.047-.095-.876-1.793-1.331-3.965-1.318-6.28 0-.662.04-1.337.118-2.005.349-2.998 1.433-5.75 3.053-7.748.825-1.018 1.75-1.794 2.75-2.308.897-.46 1.825-.694 2.757-.694a5.6 5.6 0 0 1 1.117.112 26.313 26.313 0 0 1 1.6-1.525c2.796-2.446 6.05-4.235 9.673-5.318 2.721-.813 5.664-1.225 8.748-1.225 1.23 0 2.5.066 3.775.196 2.57.262 4.642 1.106 6.334 2.578 1.456 1.268 2.419 2.802 3.35 4.285 1.2 1.912 2.333 3.717 4.428 4.733.887.432 3.32 1.146 9.88 2.094 4.181.605 8.75 1.113 11.4 1.365l4.013.13c2.09.002 4.022.194 5.741.57 1.689.37 3.232.931 4.586 1.668 2.541 1.383 4.477 3.373 5.921 6.084 2.57 4.827 3.107 11.092 3.675 17.726l.035.407c.043.514.159 1.256.293 2.115.244 1.564.547 3.507.596 5.267.035 1.262-.063 2.28-.299 3.103.017.053.03.107.037.162.031.234.126.478.235.76.235.607.527 1.362.249 2.31-.197.675-.737.916-1.176.916-.029 0-.058-.001-.086-.003-.202-.015-.481-.072-.848-.334l-.008.024c-.23.733-.759.871-.976.897a1.154 1.154 0 0 1-.133.008c-.742 0-1.155-.664-1.541-1.678-.494.487-.964.812-1.505.812h-.047a1.201 1.201 0 0 1-.912-.469c-.413-.537-.249-1.217-.061-1.75.105-.296.257-.64.44-.995l.019-.038.01-.02c.031-.065.079-.162.133-.267a76.505 76.505 0 0 1-.373-.437c-.457-.535-.973-1.142-1.467-1.599-.639-.591-.968-.68-1.107-.68-.013 0-.025.001-.037.003-.509.071-1.149.082-1.828.092-.537.009-1.091.018-1.552.058a4.237 4.237 0 0 0-.551.076c-.451.573-.712 1.538-.937 2.425l.05.074c.076.111.307.452.359.518.556.711 1.14 2.223.342 3.259a.963.963 0 0 1-.763.37.997.997 0 0 1-.294-.044c-.163-.05-.377-.149-1.008-.699a7.011 7.011 0 0 1-.038.155c-.124.48-.453 1.756-1.482 1.756-.401 0-.748-.172-1.006-.497-.212-.268-.36-.634-.454-1.118a5.233 5.233 0 0 1-.035-.204 4.42 4.42 0 0 1-.297.248c-.338.255-.672.384-.996.384-.176 0-.346-.038-.505-.113-.321-.152-.705-.502-.71-1.308-.002-.405.092-.925.257-1.429.056-.168.114-.32.175-.456-.29-.584-.462-1.16-.615-1.675-.12-.401-.283-.95-.428-1.096l-.005-.006c-.013-.006-.093-.043-.31-.043-.138 0-.303.015-.49.044-3.404.54-7.103.811-11.31.832h-.503c-3.33 0-6.284-.153-8.659-.277l-.59-.03c-1.703-.09-5.1-.528-8.097-.916h-.008a244.9 244.9 0 0 0-4.082-.507 11.82 11.82 0 0 0-1.255-.074c-1.415 0-2.399.318-3.007.972-.696.748-.946 1.933-1.188 3.079-.204.97-.398 1.885-.873 2.642l-.06.093c.023.676.018 1.435-.14 2.108-.23.981-.739 1.588-1.514 1.803a.995.995 0 0 1-.266.037z" fill="#000"/><path d="M54.465 28.52c1.216 0 2.458.064 3.722.193 2.461.251 4.44 1.054 6.049 2.455 1.4 1.22 2.343 2.722 3.255 4.175 1.24 1.973 2.41 3.837 4.635 4.917 3.082 1.5 16.513 3.039 21.474 3.51l4.037.131c2.057.001 3.954.189 5.638.558 1.641.36 3.139.903 4.45 1.617 2.451 1.334 4.321 3.258 5.717 5.88 2.524 4.74 3.057 10.958 3.62 17.54l.035.408c.046.53.163 1.28.298 2.15.241 1.548.542 3.475.59 5.204.036 1.296-.071 2.325-.333 3.128a.409.409 0 0 1 .075.188c.039.29.148.572.264.87.219.567.468 1.21.235 2.001-.121.413-.426.558-.688.558l-.05-.002c-.13-.01-.528-.037-1.224-.85l-.013-.014c-.029.397-.075.692-.141.903-.131.417-.372.53-.551.55a.58.58 0 0 1-.072.004c-.516 0-.852-.676-1.34-2.131l-.024.028c-.63.7-1.156 1.238-1.682 1.238h-.027a.686.686 0 0 1-.527-.272c-.21-.274-.206-.673.014-1.294a7.79 7.79 0 0 1 .413-.934l.033-.067c.053-.108.151-.309.247-.482l.035-.064a46.387 46.387 0 0 1-.589-.684c-.937-1.1-2.094-2.457-2.965-2.457a.774.774 0 0 0-.107.007c-.479.067-1.104.077-1.766.088-.545.009-1.109.018-1.588.06-.521.044-.732.111-.801.14-.613.674-.91 1.844-1.172 2.88l-.019.073a.396.396 0 0 1 .048.058l.032.045.095.14c.111.163.317.468.379.547.502.64.936 1.888.34 2.663a.45.45 0 0 1-.358.173.479.479 0 0 1-.141-.022c-.069-.021-.254-.078-1.075-.82a14.528 14.528 0 0 1-.363-.339c-.03.03-.06.06-.093.088a6.227 6.227 0 0 1-.16.878c-.246.956-.552 1.383-.99 1.383-.483 0-.806-.408-.961-1.212a6.706 6.706 0 0 1-.102-.895 3.246 3.246 0 0 1-.24-.133l-.05.053c-.22.242-.45.492-.751.72-.247.186-.475.28-.683.28a.655.655 0 0 1-.284-.064c-.279-.132-.421-.424-.424-.868-.002-.349.086-.826.233-1.276.09-.273.178-.469.259-.609-.34-.615-.529-1.25-.695-1.808-.163-.55-.318-1.069-.551-1.303-.056-.056-.198-.198-.68-.198-.153 0-.34.014-.571.05-3.377.536-7.05.805-11.231.825l-.5.002c-3.31 0-6.249-.154-8.632-.278l-.591-.03c-1.682-.088-5.07-.526-8.058-.912a246.05 246.05 0 0 0-4.098-.508 12.26 12.26 0 0 0-1.312-.076c-1.564 0-2.677.375-3.384 1.134-.788.847-1.052 2.1-1.308 3.31-.195.926-.38 1.801-.809 2.485a2.87 2.87 0 0 1-.14.204c.054 1.31.05 3.214-1.28 3.582a.478.478 0 0 1-.127.018c-.124 0-.285-.05-.434-.255a2.66 2.66 0 0 1-.172-.281c-.104-.192-.24-.468-.402-.82a58.581 58.581 0 0 1-.6-1.36 2.936 2.936 0 0 1-.455-.169c-.118.1-.232.199-.298.265-.12.122-.528.5-.937.838-.816.672-1.128.767-1.342.77h-.007a.543.543 0 0 1-.38-.148c-.256-.244-.303-.655-.147-1.293.138-.566.434-1.292.792-1.942.164-.298.311-.526.442-.703-.296-.704-.52-1.503-.755-2.337-.948-3.385-1.817-5.614-5.114-5.747-4.8-.195-12.04-.49-17.72-.492-.19.052-1.2.367-2.328 1.397-.424.389-.744.974-1.054 1.54-.292.537-.595 1.09-1.01 1.516a2.957 2.957 0 0 1-.254.233c.073.688.068 2.014-.583 2.552a.448.448 0 0 1-.357.096c-.244-.04-.337-.19-.692-.822a79.492 79.492 0 0 1-.81-1.486 1.907 1.907 0 0 1-.11-.059c-.073.06-.183.155-.285.242-1.143.983-1.836 1.497-2.331 1.497a.619.619 0 0 1-.342-.1c-.458-.294-.231-.956-.146-1.205.472-1.388 1.133-2.538 1.965-3.421.012-.5.066-1.062.162-1.694.195-1.286.5-2.393.528-2.495.066-.244 1.164-4.267 2.96-6.765.7-.975 1.479-1.71 2.167-2.36 1.272-1.2 1.936-1.884 1.936-3.138 0-1.633.095-3.252.282-4.838a9.4 9.4 0 0 1-.11-.218c-.846-1.734-1.28-3.84-1.268-6.065 0-.643.039-1.296.116-1.953.338-2.909 1.384-5.572 2.946-7.499.781-.963 1.652-1.695 2.59-2.177.824-.424 1.67-.637 2.519-.637a5.07 5.07 0 0 1 1.287.166c.566-.6 1.157-1.168 1.77-1.704 2.74-2.398 5.93-4.152 9.482-5.213 2.682-.802 5.561-1.204 8.598-1.204m0-.986c-3.133 0-6.127.42-8.896 1.247-3.694 1.104-7.012 2.928-9.863 5.423-.492.43-.974.885-1.44 1.358a6.2 6.2 0 0 0-.938-.072c-1.016 0-2.023.252-2.994.751-1.063.546-2.042 1.367-2.912 2.439-1.677 2.069-2.799 4.91-3.158 7.998-.08.685-.12 1.378-.121 2.06-.014 2.375.454 4.608 1.351 6.462-.17 1.532-.256 3.1-.256 4.662 0 .79-.327 1.205-1.628 2.432-.72.68-1.537 1.45-2.293 2.502-.799 1.112-1.556 2.61-2.249 4.454-.52 1.38-.82 2.483-.859 2.623a24.055 24.055 0 0 0-.551 2.604c-.08.53-.133 1.009-.158 1.45-.811.944-1.46 2.119-1.928 3.499a3.042 3.042 0 0 0-.181.853c-.028.636.231 1.164.73 1.484.272.175.576.264.902.264.46 0 .921-.17 1.495-.551.245-.163.521-.371.873-.658.095.174.19.347.278.502.2.356.33.584.48.769a1.463 1.463 0 0 0 1.174.573c.345 0 .679-.12.94-.336.88-.727 1-2.056.97-2.914.482-.513.82-1.13 1.118-1.675.271-.496.552-1.009.854-1.286.803-.733 1.512-1.032 1.79-1.129 5.634.009 12.777.3 17.519.492 1.246.05 2.042.424 2.661 1.25.615.819 1.022 2.002 1.518 3.77.184.657.373 1.332.603 1.962-.069.112-.137.23-.206.354-.403.731-.725 1.526-.885 2.18-.106.435-.139.805-.102 1.131.05.44.227.808.524 1.092.29.278.677.431 1.092.431h.021c.567-.006 1.106-.279 1.984-1.003.167-.137.334-.281.485-.416.08.18.154.343.223.493.172.373.317.668.432.88.088.161.164.285.24.389.315.433.764.67 1.262.67.138 0 .275-.018.408-.055.664-.185 1.526-.712 1.867-2.168.158-.675.175-1.413.157-2.082.508-.825.717-1.814.919-2.77.228-1.082.464-2.2 1.066-2.847.507-.545 1.368-.81 2.631-.81.367 0 .77.024 1.2.07.992.108 2.488.301 4.072.506h.005c3.007.388 6.415.829 8.137.919l.448.023.143.008c2.38.124 5.343.278 8.686.278l.505-.001c4.234-.02 7.96-.294 11.39-.837.156-.025.292-.038.402-.038.087.202.192.556.261.788.135.454.296.995.55 1.55-.037.092-.072.19-.106.294-.18.55-.283 1.127-.28 1.581.005 1.116.625 1.575.994 1.75.229.108.473.162.727.162.327 0 .653-.09.975-.27.104.303.238.557.406.768.352.445.852.689 1.407.689.32 0 .929-.098 1.4-.755.151-.212.28-.467.395-.786.277.198.433.26.58.306.146.045.296.067.447.067.461 0 .899-.213 1.172-.57.443-.577.589-1.323.424-2.157a4.125 4.125 0 0 0-.77-1.692 16.1 16.1 0 0 1-.267-.386c.176-.679.39-1.416.689-1.885.076-.011.174-.023.298-.034.442-.038.987-.046 1.514-.055l-.014-.986.016.986c.678-.01 1.318-.021 1.852-.092.063.018.317.116.839.614.449.428.926.989 1.348 1.483l.165.193-.017.035.001-.003c-.193.376-.354.74-.466 1.056-.211.598-.427 1.476.133 2.205l.001.001v.001a1.716 1.716 0 0 0 1.366.666c.441 0 .871-.156 1.31-.476.06.121.118.23.178.33.171.287.357.506.568.669a1.607 1.607 0 0 0 2.337-.386 1.887 1.887 0 0 0 .703.136c.784 0 1.438-.5 1.664-1.273.324-1.104-.014-1.979-.262-2.618-.098-.254-.183-.473-.207-.65a1.059 1.059 0 0 0-.016-.096c.225-.847.317-1.872.282-3.12-.05-1.79-.356-3.75-.601-5.325-.133-.852-.247-1.587-.29-2.084l-.034-.408c-.573-6.683-1.113-12.996-3.73-17.911-1.491-2.8-3.494-4.856-6.123-6.287-1.397-.76-2.986-1.339-4.723-1.72-1.753-.383-3.719-.579-5.843-.581l-3.989-.13c-6.783-.645-18.478-2.138-21.086-3.407-1.965-.953-3.011-2.62-4.222-4.549-.95-1.514-1.933-3.08-3.445-4.395-1.774-1.544-3.939-2.428-6.62-2.701-1.292-.132-2.58-.2-3.828-.2v-.001z" fill="#fff"/><path d="M23.142 44.36a1.03 1.03 0 0 1-.481-.12c-1.084-.576-2.114-.947-3.203-1.34-.276-.1-.56-.201-.848-.308a.97.97 0 0 1-.581-1.26 1.01 1.01 0 0 1 1.296-.565c.283.105.562.205.831.302 1.16.418 2.256.813 3.468 1.457a.976.976 0 0 1 .483.582.946.946 0 0 1-.083.743 1.01 1.01 0 0 1-.882.509z" fill="#000"/><path d="M18.968 41.196c.058 0 .118.01.177.032.283.104.563.205.835.303 1.142.412 2.221.8 3.401 1.427.241.128.33.422.198.656a.508.508 0 0 1-.675.193c-1.116-.593-2.163-.97-3.27-1.369-.273-.099-.556-.2-.843-.307a.48.48 0 0 1-.288-.623.498.498 0 0 1 .465-.312m0-.986c-.303 0-.597.087-.848.253a1.47 1.47 0 0 0-.565.693c-.144.367-.132.766.033 1.124.165.359.464.633.842.772.29.108.575.21.85.31h.002c1.072.387 2.084.751 3.136 1.31.222.118.472.18.724.18.554 0 1.063-.293 1.328-.765.193-.345.238-.742.124-1.118a1.469 1.469 0 0 0-.726-.876c-1.245-.661-2.357-1.062-3.535-1.487-.268-.096-.546-.196-.827-.3a1.543 1.543 0 0 0-.538-.096z" fill="#fff"/><path d="M24.95 40.85c-.254 0-.496-.092-.682-.26-.62-.555-1.554-.872-2.458-1.179-1.018-.345-2.07-.702-2.878-1.428a.958.958 0 0 1-.056-1.38 1.022 1.022 0 0 1 1.42-.054c.5.45 1.314.726 2.176 1.018 1.098.373 2.232.757 3.159 1.59a.96.96 0 0 1 .056 1.38c-.189.2-.458.313-.738.313z" fill="#000"/><path d="M19.613 36.782c.121 0 .242.043.338.129.579.52 1.44.812 2.354 1.122 1.048.355 2.132.723 2.981 1.486a.474.474 0 0 1 .028.683.505.505 0 0 1-.703.027c-.697-.626-1.682-.96-2.634-1.283-.97-.329-1.971-.669-2.702-1.325a.474.474 0 0 1-.027-.683.502.502 0 0 1 .365-.156m0-.986c-.42 0-.825.172-1.11.472a1.443 1.443 0 0 0 .083 2.077c.886.796 2.04 1.187 3.056 1.532.855.29 1.738.59 2.28 1.077.28.251.645.39 1.027.39.42 0 .825-.172 1.11-.473a1.443 1.443 0 0 0-.085-2.076c-1.003-.901-2.242-1.322-3.335-1.692-.81-.275-1.576-.535-2-.916a1.533 1.533 0 0 0-1.026-.39z" fill="#fff"/><path d="M26.547 38.483a1.02 1.02 0 0 1-.412-.086c-.233-.102-.508-.314-1.269-.91-.387-.304-1.073-.842-1.44-1.085a.987.987 0 0 1-.905-.93c-.018-.409.2-.774.57-.956.15-.073.31-.11.474-.11.436 0 .816.249 1.306.6.385.277.848.64 1.257.96l.003.003c.266.209.755.592.877.67a.97.97 0 0 1 .456 1.268c-.162.35-.522.576-.916.576z" fill="#000"/><path d="M23.566 34.898c.278 0 .585.203 1.004.504.376.27.836.63 1.24.948.372.291.834.653.953.72a.478.478 0 0 1 .24.634.499.499 0 0 1-.658.242c-.17-.074-.438-.278-1.159-.844-.456-.357-1.259-.986-1.605-1.192a.544.544 0 0 1-.034.002h-.02a.491.491 0 0 1-.498-.462.518.518 0 0 1 .292-.494.547.547 0 0 1 .245-.058m0-.986c-.244 0-.48.055-.702.163-.27.133-.493.338-.643.592a1.484 1.484 0 0 0-.206.825 1.48 1.48 0 0 0 1.22 1.38c.372.259 1.012.761 1.314.998.817.64 1.09.849 1.38.976.196.085.405.129.62.129.594 0 1.135-.34 1.379-.867.163-.352.177-.747.04-1.11a1.473 1.473 0 0 0-.695-.783c-.14-.096-.58-.442-.823-.631l-.002-.002c-.413-.324-.88-.69-1.274-.973-.455-.327-.97-.697-1.608-.697z" fill="#fff"/><path d="M98.876 81.52c-.397.193-1.178 3.157.088 2.2.424-.322.698-.699 1.077-1.068" fill="#EFBB80"/><path d="M98.876 81.52c-.397.193-1.178 3.157.088 2.2.424-.322.698-.699 1.077-1.068" stroke="#C89A67" stroke-width=".864" stroke-linecap="round" stroke-linejoin="round"/><path d="M100.7 82.96c0-.741-.129 2.137.635 2.137.433 0 .83-2.03.697-2.098" fill="#EFBB80"/><path d="M100.7 82.96c0-.741-.129 2.137.635 2.137.433 0 .83-2.03.697-2.098" stroke="#C89A67" stroke-width=".864" stroke-linecap="round" stroke-linejoin="round"/><path d="M102.477 82.403c0 .163 1.628 1.609 1.69 1.523.468-.605.044-1.673-.336-2.157-.114-.146-.538-.785-.529-.764" fill="#EFBB80"/><path d="M102.477 82.403c0 .163 1.628 1.609 1.69 1.523.468-.605.044-1.673-.336-2.157-.114-.146-.538-.785-.529-.764" stroke="#C89A67" stroke-width=".864" stroke-linecap="round" stroke-linejoin="round"/><path d="M113.207 80.593c-.049-.141-.455.72-.508.824-.159.309-.728 1.45-.468 1.788.424.55 1.713-1.252 1.924-1.355" fill="#EFBB80"/><path d="M113.207 80.593c-.049-.141-.455.72-.508.824-.159.309-.728 1.45-.468 1.788.424.55 1.713-1.252 1.924-1.355" stroke="#C89A67" stroke-width=".864" stroke-linecap="round" stroke-linejoin="round"/><path d="M114.361 81.764c.058.039 1.241 4.354 1.457 1.343.022-.318-.036-.605-.075-.905" fill="#EFBB80"/><path d="M114.361 81.764c.058.039 1.241 4.354 1.457 1.343.022-.318-.036-.605-.075-.905" stroke="#C89A67" stroke-width=".864" stroke-linecap="round" stroke-linejoin="round"/><path d="M116.035 82.039c.04.287 1.501 2.226 1.774 1.29.305-1.037-.388-1.775-.512-2.702" fill="#EFBB80"/><path d="M116.035 82.039c.04.287 1.501 2.226 1.774 1.29.305-1.037-.388-1.775-.512-2.702" stroke="#C89A67" stroke-width=".864" stroke-linecap="round" stroke-linejoin="round"/><path d="M18.942 76.467c-.935.94-1.58 2.166-1.999 3.401-.728 2.12 2.357-.918 2.547-.982" fill="#EFBB80"/><path d="M18.942 76.467c-.935.94-1.58 2.166-1.999 3.401-.728 2.12 2.357-.918 2.547-.982" stroke="#C89A67" stroke-width=".864" stroke-linecap="round" stroke-linejoin="round"/><path d="M19.94 78.83c.057.056 1.315 2.488 1.385 2.424.53-.438.508-1.836.402-2.424-.018-.107-.313-.96-.26-.703" fill="#EFBB80"/><path d="M19.94 78.83c.057.056 1.315 2.488 1.385 2.424.53-.438.508-1.836.402-2.424-.018-.107-.313-.96-.26-.703" stroke="#C89A67" stroke-width=".864" stroke-linecap="round" stroke-linejoin="round"/><path d="M51.26 82.7c-.64.196-2.14 3.358-1.619 3.851.247.24 1.85-1.248 2.052-1.454.234-.232 1.007-.853.782-.614" fill="#EFBB80"/><path d="M51.26 82.7c-.64.196-2.14 3.358-1.619 3.851.247.24 1.85-1.248 2.052-1.454.234-.232 1.007-.853.782-.614" stroke="#C89A67" stroke-width=".864" stroke-linecap="round" stroke-linejoin="round"/><path d="M52.797 84.303c0-.038 1.381 3.342 1.575 3.286 1.302-.36.936-3.054.936-3.985" fill="#EFBB80"/><path d="M52.797 84.303c0-.038 1.381 3.342 1.575 3.286 1.302-.36.936-3.054.936-3.985" stroke="#C89A67" stroke-width=".864" stroke-linecap="round" stroke-linejoin="round"/><path d="M97.618 44.884c16.493 0 17.353 12.083 18.47 25.101.216 2.535 1.898 9.3-.009 11.153-1.907 1.853-4.347-5.032-7.255-4.629-1.254.176-4.1-.09-4.709.545-2.07 2.15-1.086 7.425-4.016 5.053-2.282-1.848-.76-5.4-4.427-4.821-7.856 1.244-15.914.755-20.738.506-2.538-.133-9.224-1.102-12.097-1.415-9.815-1.06-5.155 8.613-9.506 8.034-3.836-.506-1.395-10.27-8.734-10.565-5.698-.232-12.375-.493-17.843-.493-.19 0-1.54.386-2.94 1.664-1.42 1.304-1.628 3.761-3.336 3.547-1.982-.249-.314-6.185-.314-6.185s1.082-4.05 2.812-6.456c1.813-2.526 4.285-3.38 4.285-6.06 0-17.3 10.782-32.223 30.818-30.172 8.584.875 7.644 8.561 13.593 11.448 3.932 1.913 21.86 3.612 21.86 3.612l4.086.133h0z" fill="#675040" stroke="#7A5E4E" stroke-width="2.021" stroke-linecap="round" stroke-linejoin="round"/><path d="M59.863 33.71C38.4 26.611 23.329 54.008 35.09 64.26c6.31 5.498 27.91 4.46 33.153-2.261 2.842-3.642 5.998-12.418 1.13-18.097-1.466-1.708-1.78-1.905-3.346-3.964-1.567-2.054-1.915-3.277-2.926-4.268-1.01-.986-3.24-1.96-3.24-1.96z" fill="#A89C90" stroke="#73675D" stroke-width="1.499" stroke-linecap="round" stroke-linejoin="round"/><path d="M64.334 37.502c-3.593-1.896-8.933 2.175-10.156 3.706-4.39 5.495-4.797 12.89-1.46 18.667.675 1.172 6.514 6.79 10.971 5.315 0 0 2.079-.63 3.778-2.42 1.699-1.788 1.902-2.539 3.01-4.739 1.112-2.196 1.425-4.05 1.425-4.05s.464-2.436 0-4.765c-.459-2.329-1.844-4.55-1.844-4.55l-2.322-2.776-3.403-4.388z" fill="#40382F" stroke="#73675D" stroke-width="1.399" stroke-linecap="round" stroke-linejoin="round"/><path d="M40.716 37.321c3.87 4.182-1.77 28.448-7.287 24.338-2.71-2.02-2.917-7.944-1.787-12.456.892-3.565 2.874-5.568 3.487-6.696.886-1.621 2.321-2.95 3.627-4.216.287-.283 1.69-1.261 1.96-.97h0z" fill="#40382F" stroke="#73675D" stroke-width="1.368" stroke-linecap="round" stroke-linejoin="round"/><path d="M25.933 46.861c.671-5.769 4.193-10.114 7.873-9.711 3.677.403 6.117 5.405 5.447 11.17-.671 5.765-4.193 10.114-7.87 9.71-3.68-.403-6.12-5.404-5.45-11.169z" fill="#fff" stroke="#77472A" stroke-width="1.334" stroke-linejoin="round"/><path d="M31.55 50.018c-1.204-.502-1.73-2.106-1.164-3.577.56-1.476 1.994-2.26 3.204-1.755 1.205.502 1.73 2.106 1.165 3.578-.56 1.475-1.995 2.26-3.204 1.754z" fill="#000" stroke="#6A362A" stroke-width=".598" stroke-linejoin="round"/><path d="M32.68 48.607c.226-.283.693-.399 1.042-.258.353.142.454.49.23.773-.225.283-.693.398-1.046.257-.35-.142-.45-.485-.226-.772z" fill="#fff"/><path d="M31.507 49.735c-1.134-.472-1.642-1.94-1.13-3.277.512-1.339 1.845-2.042 2.983-1.575 1.135.472 1.642 1.94 1.13 3.277-.512 1.339-1.845 2.042-2.983 1.575z" stroke="#6A362A" stroke-width=".674" stroke-linejoin="round"/><path d="M25.933 46.934c.671-5.765 4.193-10.115 7.873-9.711 3.677.403 6.117 5.404 5.447 11.17-.671 5.768-4.193 10.114-7.87 9.71-3.68-.403-6.12-5.404-5.45-11.17z" stroke="#77472A" stroke-width="1.334" stroke-linejoin="round"/><path d="M53.283 50.452c.358-5.684 3.787-10.11 7.666-9.879 3.88.227 6.73 5.023 6.377 10.71-.357 5.684-3.786 10.107-7.665 9.88-3.875-.228-6.73-5.024-6.378-10.711z" fill="#fff" stroke="#77472A" stroke-width="1.399" stroke-linejoin="round"/><path d="M59.521 53.45c-1.231-.407-1.875-2.02-1.447-3.603.432-1.583 1.778-2.535 3.01-2.128 1.23.408 1.88 2.02 1.447 3.603-.432 1.583-1.779 2.535-3.01 2.128z" fill="#000" stroke="#6A362A" stroke-width=".672" stroke-linejoin="round"/><path d="M60.528 52c.062-.347.455-.609.87-.583.418.03.706.334.644.686-.067.352-.455.614-.874.583-.415-.025-.702-.334-.64-.686z" fill="#fff"/><path d="M59.457 53.158c-1.157-.378-1.779-1.854-1.386-3.29.393-1.437 1.646-2.295 2.807-1.918 1.156.378 1.774 1.853 1.385 3.29-.392 1.437-1.65 2.295-2.806 1.918z" stroke="#6A362A" stroke-width=".758" stroke-linejoin="round"/><path d="M53.283 50.452c.358-5.684 3.787-10.11 7.666-9.879 3.88.227 6.73 5.023 6.377 10.71-.357 5.684-3.786 10.107-7.665 9.88-3.875-.228-6.73-5.024-6.378-10.711z" stroke="#77472A" stroke-width="1.399" stroke-linejoin="round"/><path d="M48.538 47.59c-.013-2.582-2.326-5.018-4.56-.596-1.063 2.11-1.98 9.973-5.595 15.129-1.231 1.754 2.171 2.998 3.614 3.311 4.405.966 10.332.824 11.258-.596 1.042-1.604-.728-2.106-1.818-3.668-2.343-3.363-2.886-9.54-2.9-13.58z" fill="#383637" stroke="#4E4645" stroke-width=".957" stroke-linecap="round" stroke-linejoin="round"/><path d="M44.773 45.596c.167-.922 1.081-1.536 2.039-1.368.962.167 1.602 1.046 1.434 1.968-.168.918-1.081 1.532-2.043 1.364-.958-.163-1.598-1.042-1.43-1.964z" fill="#232324" stroke="#232324" stroke-width=".356" stroke-linecap="round" stroke-linejoin="round"/><path d="M45.607 45.574c.053-.283.229-.493.397-.467.168.03.26.287.207.57-.053.288-.23.498-.397.468-.163-.026-.256-.283-.207-.57zM46.773 45.776c.053-.288.23-.493.397-.468.168.03.256.284.207.57-.053.288-.23.499-.397.468-.168-.03-.26-.283-.207-.57z" fill="#111" stroke="#111" stroke-width=".356" stroke-linecap="round" stroke-linejoin="round"/><path d="M23.14 43.382c-1.43-.76-2.728-1.167-4.175-1.703M24.949 39.874c-1.505-1.351-3.99-1.399-5.336-2.608M26.547 37.506c-.353-.154-3.041-2.48-3.024-2.076M69.147 46.865c-.088-.343 6.647-2.174 5.354-1.767M70.367 49.825c-.181-.039 3.001-.502 3.897-.3M69.81 52.81c1.444-.06 3.505.297 4.886.691.388.108 2.586.837 2.516.854" stroke="#000" stroke-width=".995" stroke-linecap="round" stroke-linejoin="round"/><path d="M45.803 65.027c.291-.55 3.261-1.403 3.478-2.793.212-1.39-.314-3.118-.314-3.118s-2.996-8.617-3.57-8.54c-1.077.137-3.84 9.316-3.84 9.316s-4.788 7.477-3.905 7.901c.502.24 7.86-2.213 8.15-2.766z" fill="#B65153" stroke="#000" stroke-width=".847" stroke-linecap="round" stroke-linejoin="round"/><path d="M41.207 60.823c.963-.579 4.846-.377 6.28.232.168.069 1.466.583 1.298 1.201-.57 2.067-9.586 5.254-10.667 4.843-.816-.31 1.898-4.298 1.898-4.298s1.174-1.956 1.227-1.648" fill="#9D4347"/><path d="M41.207 60.823c.963-.579 4.846-.377 6.28.232.168.069 1.466.583 1.298 1.201-.57 2.067-9.586 5.254-10.667 4.843-.816-.31 1.898-4.298 1.898-4.298s1.174-1.956 1.227-1.648" stroke="#9C4146" stroke-width=".847" stroke-linecap="round" stroke-linejoin="round"/><path d="M44.91 65.529s2.909-1.304 3.884-2.488c.975-1.18.534-1.905.234-3.299-.282-1.304-3.059-9.243-3.632-9.166-1.077.137-3.884 9.44-3.884 9.44s-4.736 7.353-3.849 7.778c.504.24 7.247-2.265 7.247-2.265z" stroke="#000" stroke-width=".847" stroke-linecap="round" stroke-linejoin="round"/></svg>